# Made using Asset Forge (www.assetforge.io) version 1.3 

mtllib LegoBlock1.mtl 

g brick_slope1_1

v -0.09375 1.106522 0.25
v -0.09375 1 0.25
v -0.09907409 1.106522 0.2904405
v -0.09907409 1 0.2904405
v -0.09907409 1 0.2095595
v -0.09907409 1.106522 0.2095595
v -0.1146835 1.106522 0.328125
v -0.1146835 1 0.328125
v -0.1395146 1.106522 0.3604854
v -0.1395146 1 0.3604854
v -0.171875 1 0.3853165
v -0.171875 1.106522 0.3853165
v -0.2095595 1 0.4009259
v -0.2095595 1.106522 0.4009259
v -0.1146835 1 0.171875
v -0.1146835 1.106522 0.171875
v -0.1395146 1 0.1395146
v -0.1395146 1.106522 0.1395146
v -0.171875 1.106522 0.1146835
v -0.171875 1 0.1146835
v -0.2095595 1.106522 0.09907409
v -0.2095595 1 0.09907409
v -0.25 1.106522 0.09375
v -0.25 1 0.09375
v -0.2904405 1.106522 0.09907409
v -0.2904405 1 0.09907409
v -0.328125 1.106522 0.1146835
v -0.328125 1 0.1146835
v -0.25 1 0.40625
v -0.25 1.106522 0.40625
v -0.2904405 1 0.4009259
v -0.2904405 1.106522 0.4009259
v -0.328125 1 0.3853165
v -0.328125 1.106522 0.3853165
v -0.3604854 1 0.3604854
v -0.3604854 1.106522 0.3604854
v -0.3853165 1.106522 0.328125
v -0.3853165 1 0.328125
v -0.4009259 1.106522 0.2904405
v -0.4009259 1 0.2904405
v -0.40625 1.106522 0.25
v -0.40625 1 0.25
v -0.4009259 1.106522 0.2095595
v -0.4009259 1 0.2095595
v -0.3853165 1.106522 0.171875
v -0.3853165 1 0.171875
v -0.3604854 1.106522 0.1395146
v -0.3604854 1 0.1395146
v -7.219114E-16 0 0.5
v -0.5 0 0.5
v -7.219114E-16 1 0.5
v -0.5 1 0.5
v -7.219114E-16 0 -0.5
v -0.5 0 -0.5
v -0.5 0.25 -0.5
v -7.219114E-16 0.25 -0.5
v -0.5 1 0
v -7.219114E-16 1 0
vn 0.9990385 0 -0.04384195
vn 0.9990385 0 0.04384195
vn 0.9763442 0 0.216222
vn 0.9536499 0 0.3009183
vn 0.9763442 0 -0.216222
vn 0.9536499 0 -0.3009183
vn 0.8871137 0 0.4615511
vn 0.8432716 0 0.5374877
vn 0.7071068 0 0.7071068
vn 0.5374877 0 0.8432716
vn 0.4615511 0 0.8871137
vn 0.3009183 0 0.9536499
vn 0.2162222 0 0.9763442
vn 0.8871137 0 -0.4615511
vn 0.8432716 0 -0.5374877
vn 0.7071068 0 -0.7071068
vn 0.5374877 0 -0.8432716
vn 0.4615511 0 -0.8871137
vn 0.3009183 0 -0.9536499
vn 0.2162221 0 -0.9763442
vn 0.04384195 0 -0.9990385
vn -0.04384195 0 -0.9990385
vn -0.2162221 0 -0.9763442
vn -0.3009183 0 -0.9536499
vn -0.4615511 0 -0.8871137
vn -0.5374877 0 -0.8432716
vn 0.043842 0 0.9990385
vn -0.043842 0 0.9990385
vn -0.2162222 0 0.9763442
vn -0.3009183 0 0.9536499
vn -0.4615511 0 0.8871137
vn -0.5374877 0 0.8432716
vn -0.7071068 0 0.7071068
vn -0.8432716 0 0.5374877
vn -0.8871137 0 0.4615511
vn -0.9536499 0 0.3009183
vn -0.9763442 0 0.2162222
vn -0.9990385 0 0.043842
vn -0.9990385 0 -0.043842
vn -0.9763442 0 -0.2162222
vn -0.9536499 0 -0.3009183
vn -0.8871137 0 -0.4615511
vn -0.8432716 0 -0.5374877
vn -0.7071068 0 -0.7071068
vn 0 0 1
vn 0 -1 0
vn 0 1 0
vn 0 0 -1
vn -1 0 0
vn 1 0 0
vn 0 0.5547003 -0.8320503
vt -0.25 1.106522
vt -0.25 1
vt -0.2904405 1.106522
vt -0.2904405 1
vt -0.2095595 1
vt -0.2095595 1.106522
vt -0.328125 1.106522
vt -0.328125 1
vt -0.3604854 1.106522
vt -0.3604854 1
vt -0.1395146 1
vt -0.171875 1
vt -0.1395146 1.106522
vt -0.171875 1.106522
vt 0.1395146 1.106522
vt 0.171875 1.106522
vt 0.1395146 1
vt 0.171875 1
vt 0.2095595 1.106522
vt 0.2095595 1
vt 0.25 1.106522
vt 0.25 1
vt 0.2904405 1.106522
vt 0.2904405 1
vt 0.328125 1.106522
vt 0.328125 1
vt 0.3604854 1.106522
vt 0.3604854 1
vt -7.219114E-16 0
vt -0.5 0
vt -7.219114E-16 1
vt -0.5 1
vt 7.219114E-16 -0.5
vt 7.219114E-16 0.5
vt 0.5 -0.5
vt 0.5 0.5
vt 0.09375 0.25
vt 0.09907409 0.2904405
vt 0.09907409 0.2095595
vt 0.1146835 0.171875
vt 0.1146835 0.328125
vt 0.1395146 0.1395146
vt 0.1395146 0.3604854
vt 0.171875 0.1146835
vt 0.171875 0.3853165
vt 0.2095595 0.09907409
vt 0.2095595 0.4009259
vt 0.25 0.09375
vt 0.25 0.40625
vt 0.2904405 0.09907409
vt 0.2904405 0.4009259
vt 0.328125 0.1146835
vt 0.328125 0.3853165
vt 0.3604854 0.1395146
vt 0.3604854 0.3604854
vt 0.3853165 0.171875
vt 0.3853165 0.328125
vt 0.4009259 0.2095595
vt 0.4009259 0.2904405
vt 0.40625 0.25
vt 0.5 0
vt 7.219114E-16 0
vt 0.5 0.25
vt 7.219114E-16 0.25
vt -0.5 0.25
vt 0 1
vt 0.5 1
vt 7.219114E-16 1

usemtl _defaultMat (Instance) (Instance)
usemap _defaultMat (Instance) (Instance)
f 3/3/3 2/2/2 1/1/1
f 2/2/2 3/3/3 4/4/4
f 5/5/5 1/1/1 2/2/2
f 1/1/1 5/5/5 6/6/6
f 7/7/7 4/4/4 3/3/3
f 4/4/4 7/7/7 8/8/8
f 9/9/9 8/8/8 7/7/7
f 8/8/8 9/9/9 10/10/9
f 9/13/9 11/12/10 10/11/9
f 11/12/10 9/13/9 12/14/11
f 12/14/11 13/5/12 11/12/10
f 13/5/12 12/14/11 14/6/13
f 15/12/14 6/6/6 5/5/5
f 6/6/6 15/12/14 16/14/15
f 17/11/16 16/14/15 15/12/14
f 16/14/15 17/11/16 18/13/16
f 17/17/16 19/16/17 18/15/16
f 19/16/17 17/17/16 20/18/18
f 20/18/18 21/19/19 19/16/17
f 21/19/19 20/18/18 22/20/20
f 22/20/20 23/21/21 21/19/19
f 23/21/21 22/20/20 24/22/22
f 24/22/22 25/23/23 23/21/21
f 25/23/23 24/22/22 26/24/24
f 26/24/24 27/25/25 25/23/23
f 27/25/25 26/24/24 28/26/26
f 14/6/13 29/2/27 13/5/12
f 29/2/27 14/6/13 30/1/28
f 30/1/28 31/4/29 29/2/27
f 31/4/29 30/1/28 32/3/30
f 32/3/30 33/8/31 31/4/29
f 33/8/31 32/3/30 34/7/32
f 34/7/32 35/10/33 33/8/31
f 35/10/33 34/7/32 36/9/33
f 37/25/34 35/28/33 36/27/33
f 35/28/33 37/25/34 38/26/35
f 39/23/36 38/26/35 37/25/34
f 38/26/35 39/23/36 40/24/37
f 41/21/38 40/24/37 39/23/36
f 40/24/37 41/21/38 42/22/39
f 43/19/40 42/22/39 41/21/38
f 42/22/39 43/19/40 44/20/41
f 45/16/42 44/20/41 43/19/40
f 44/20/41 45/16/42 46/18/43
f 47/15/44 46/18/43 45/16/42
f 46/18/43 47/15/44 48/17/44
f 47/27/44 28/26/26 48/28/44
f 28/26/26 47/27/44 27/25/25
f 51/31/45 50/30/45 49/29/45
f 50/30/45 51/31/45 52/32/45
f 50/35/46 53/34/46 49/33/46
f 53/34/46 50/35/46 54/36/46
f 6/39/47 3/38/47 1/37/47
f 3/38/47 6/39/47 16/40/47
f 3/38/47 16/40/47 7/41/47
f 7/41/47 16/40/47 18/42/47
f 7/41/47 18/42/47 9/43/47
f 9/43/47 18/42/47 19/44/47
f 9/43/47 19/44/47 12/45/47
f 12/45/47 19/44/47 21/46/47
f 12/45/47 21/46/47 14/47/47
f 14/47/47 21/46/47 23/48/47
f 14/47/47 23/48/47 30/49/47
f 30/49/47 23/48/47 25/50/47
f 30/49/47 25/50/47 32/51/47
f 32/51/47 25/50/47 27/52/47
f 32/51/47 27/52/47 34/53/47
f 34/53/47 27/52/47 47/54/47
f 34/53/47 47/54/47 36/55/47
f 36/55/47 47/54/47 45/56/47
f 36/55/47 45/56/47 37/57/47
f 37/57/47 45/56/47 43/58/47
f 37/57/47 43/58/47 39/59/47
f 39/59/47 43/58/47 41/60/47
f 55/63/48 53/62/48 54/61/48
f 53/62/48 55/63/48 56/64/48
f 50/61/49 55/65/49 54/30/49
f 55/65/49 50/61/49 57/66/49
f 57/66/49 50/61/49 52/67/49
f 58/66/50 53/61/50 56/63/50
f 53/61/50 58/66/50 49/30/50
f 49/30/50 58/66/50 51/32/50
f 57/67/51 56/64/51 55/63/51
f 56/64/51 57/67/51 58/68/51
f 58/62/47 5/39/47 51/34/47
f 5/39/47 58/62/47 15/40/47
f 15/40/47 58/62/47 17/42/47
f 17/42/47 58/62/47 20/44/47
f 20/44/47 58/62/47 22/46/47
f 22/46/47 58/62/47 57/61/47
f 51/34/47 5/39/47 2/37/47
f 22/46/47 57/61/47 24/48/47
f 24/48/47 57/61/47 26/50/47
f 26/50/47 57/61/47 28/52/47
f 28/52/47 57/61/47 48/54/47
f 48/54/47 57/61/47 46/56/47
f 46/56/47 57/61/47 44/58/47
f 44/58/47 57/61/47 42/60/47
f 4/38/47 51/34/47 2/37/47
f 52/36/47 42/60/47 57/61/47
f 52/36/47 40/59/47 42/60/47
f 52/36/47 38/57/47 40/59/47
f 52/36/47 35/55/47 38/57/47
f 52/36/47 33/53/47 35/55/47
f 52/36/47 31/51/47 33/53/47
f 52/36/47 29/49/47 31/51/47
f 52/36/47 13/47/47 29/49/47
f 51/34/47 13/47/47 52/36/47
f 13/47/47 51/34/47 11/45/47
f 11/45/47 51/34/47 10/43/47
f 10/43/47 51/34/47 8/41/47
f 8/41/47 51/34/47 4/38/47
